# xmcd CD database file
#
# Track frame offsets:
#	182
#	17147
#	36045
#	49757
#	63332
#	84657
#	97640
#	111157
#	124385
#	144982
#	157222
#	171367
#
# Disc length: 2641 seconds
#
# Revision: 0
# Processed by: cddbd v1.5.2PL0 Copyright (c) Steve Scherf et al.
# Submitted via: CDex 1.70beta2
#
DISCID=9e0a4f0c
DTITLE=Hajo and Lygia - celestin
DYEAR=1997
DGENRE=Jazz
TTITLE0=crazy muppets
TTITLE1=nova era
TTITLE2=veneza
TTITLE3=inside transformation
TTITLE4=listen to this sound
TTITLE5=diga sim
TTITLE6=saudade do leblon
TTITLE7=pelô
TTITLE8=celestin
TTITLE9=hajomaco - lygialelê
TTITLE10=samba prima clima
TTITLE11=boa viajem
EXTD=YEAR: 1997
EXTT0=
EXTT1=
EXTT2=
EXTT3=
EXTT4=
EXTT5=
EXTT6=
EXTT7=
EXTT8=
EXTT9=
EXTT10=
EXTT11=
PLAYORDER=
